<?xml version="1.0" standalone="no"?>
<!DOCTYPE svg PUBLIC "-//W3C//DTD SVG 20010904//EN"
 "http://www.w3.org/TR/2001/REC-SVG-20010904/DTD/svg10.dtd">
<svg version="1.0" xmlns="http://www.w3.org/2000/svg"
 width="1920.000000pt" height="1214.000000pt" viewBox="0 0 1920.000000 1214.000000"
 preserveAspectRatio="xMidYMid meet">

<g transform="translate(0.000000,1214.000000) scale(0.100000,-0.100000)"
fill="#000000" stroke="none">
<path d="M18251 12121 c-71 -25 -102 -49 -128 -101 -20 -38 -23 -60 -22 -145
0 -105 5 -140 59 -400 l33 -160 -17 -64 c-9 -36 -36 -110 -59 -166 l-43 -101
116 -281 c111 -265 122 -288 219 -428 55 -82 101 -142 101 -134 -1 8 -7 41
-15 74 -21 85 -19 158 3 177 30 26 53 29 133 17 73 -12 80 -11 100 7 29 26 59
92 59 132 0 18 -13 58 -30 89 -42 77 -42 143 -1 184 18 17 40 29 56 29 22 0
29 -7 42 -39 17 -42 67 -76 97 -65 20 8 43 73 56 163 6 40 15 81 20 91 5 10
37 29 71 42 74 28 105 62 95 105 -13 52 -103 126 -222 182 -170 81 -183 98
-279 366 -70 195 -123 302 -178 362 -74 81 -157 101 -266 64z"/>
<path d="M1715 11940 c-101 -15 -100 -14 -39 -74 74 -71 72 -97 -12 -188 -62
-67 -64 -83 -14 -165 37 -60 41 -73 37 -116 -9 -100 -137 -297 -193 -297 -17
0 -27 8 -34 26 -20 53 -11 102 37 199 44 90 45 97 34 134 -16 57 -64 93 -224
171 -139 68 -254 107 -268 92 -13 -13 -39 -304 -40 -434 0 -71 5 -154 11 -185
14 -72 0 -125 -54 -206 -28 -42 -37 -64 -34 -89 l3 -32 94 -13 c99 -13 142
-31 174 -75 17 -23 22 -49 27 -140 6 -124 15 -150 62 -174 33 -17 52 -14 160
25 32 12 80 21 109 21 43 0 55 -5 80 -29 16 -16 29 -39 29 -51 0 -36 29 -34
121 10 90 43 121 46 151 17 59 -57 120 -61 304 -16 125 30 130 31 238 20 136
-14 314 -44 464 -77 63 -14 115 -24 117 -22 6 5 277 1370 273 1372 -9 7 -575
161 -698 190 -412 98 -723 134 -915 106z"/>
<path d="M3375 11618 c-2 -7 -65 -319 -138 -693 l-135 -680 30 -34 c96 -110
58 -231 -163 -517 -86 -111 -121 -173 -121 -209 0 -15 16 -42 40 -69 34 -36
41 -53 47 -100 19 -149 -41 -420 -172 -779 -36 -98 -64 -180 -62 -181 11 -9
701 -111 1089 -160 369 -47 940 -110 945 -104 4 6 165 1172 162 1175 -2 1 -52
-4 -113 -12 -60 -8 -174 -18 -255 -21 -172 -8 -223 3 -281 64 -62 65 -83 121
-118 317 -23 129 -44 189 -80 220 -20 18 -35 20 -121 18 -96 -3 -98 -2 -119
25 -40 49 -23 101 100 321 58 103 65 121 65 170 l0 56 -92 45 c-51 25 -110 62
-132 83 -132 131 -172 443 -112 897 10 74 17 136 15 138 -3 4 -234 42 -257 42
-10 0 -20 -6 -22 -12z"/>
<path d="M3700 11572 c0 -4 -4 -43 -10 -87 -5 -44 -14 -171 -20 -282 -13 -232
-3 -360 35 -482 40 -127 83 -169 218 -216 26 -9 62 -29 78 -43 30 -24 31 -29
27 -86 -5 -66 -17 -96 -115 -271 -69 -122 -84 -173 -59 -198 13 -12 23 -14 53
-5 21 5 62 8 92 6 49 -5 59 -9 91 -46 41 -46 54 -84 105 -317 44 -204 66 -235
180 -256 93 -18 496 9 521 34 4 3 19 59 33 124 l26 118 30 -2 c315 -24 2366
-155 2369 -152 9 8 72 1916 64 1924 -3 4 -3646 245 -3696 245 -12 0 -22 -3
-22 -8z"/>
<path d="M10336 11523 c-16 -4 -18 -12 -11 -78 4 -46 3 -81 -4 -93 -31 -59
-231 -78 -461 -44 -74 11 -136 19 -137 18 -1 -1 9 -39 22 -86 81 -277 230
-1165 309 -1840 29 -242 56 -554 56 -636 l0 -55 63 6 c34 4 433 35 886 70 453
35 825 66 828 69 8 7 -109 174 -181 258 -77 90 -138 135 -232 171 -159 61
-187 97 -182 230 l3 88 -36 9 c-19 5 -46 21 -60 36 -21 22 -24 35 -24 97 0 60
5 82 30 132 28 56 35 62 109 100 55 28 82 48 88 65 12 32 3 100 -28 220 -29
112 -49 86 156 207 386 228 630 425 630 509 0 13 -12 32 -26 43 -25 19 -35 20
-158 15 l-131 -6 -69 36 -69 36 -31 -19 c-17 -11 -47 -36 -66 -56 -82 -86
-142 -81 -312 23 -37 23 -96 56 -130 74 l-63 33 -245 6 c-358 9 -367 14 -401
214 -14 86 -40 140 -71 149 -13 3 -25 5 -28 5 -3 -1 -13 -3 -24 -6z"/>
<path d="M7470 11333 c0 -5 -9 -291 -20 -638 -11 -346 -20 -674 -20 -729 l0
-98 1253 7 c688 4 1254 9 1256 11 9 8 -98 677 -154 965 -40 203 -89 404 -110
456 l-14 33 -1095 0 c-603 0 -1096 -3 -1096 -7z"/>
<path d="M18046 10900 c-34 -91 -35 -103 -3 -233 l30 -125 -37 -45 c-20 -24
-36 -51 -36 -59 0 -8 9 -41 21 -74 19 -55 20 -67 9 -182 l-11 -124 52 -156
c28 -86 54 -160 58 -164 3 -3 76 15 161 41 l154 46 44 89 c23 49 41 94 39 100
-3 6 -63 97 -134 201 -128 187 -132 194 -236 445 -59 142 -108 248 -111 240z"/>
<path d="M12673 10808 c-21 -18 -86 -83 -143 -144 -108 -115 -178 -177 -338
-299 -50 -38 -91 -75 -92 -81 0 -5 12 -22 28 -36 25 -23 53 -29 359 -76 l332
-51 73 -47 c40 -26 76 -51 79 -56 3 -5 13 -61 23 -126 l17 -117 55 -30 c49
-26 54 -33 54 -63 0 -19 4 -31 10 -27 5 3 33 43 63 88 42 64 63 111 96 216 54
171 86 209 236 281 155 74 242 88 322 49 84 -40 107 -96 73 -170 -23 -48 -23
-49 -6 -88 22 -47 15 -63 -51 -127 -48 -45 -50 -57 -27 -141 9 -32 -28 -65
-64 -56 -15 4 -47 8 -71 8 -39 0 -47 -4 -62 -30 -44 -74 -49 -381 -10 -555 10
-47 44 -158 74 -246 30 -89 61 -196 68 -238 15 -94 7 -237 -20 -356 -10 -47
-18 -86 -16 -88 1 -1 228 32 505 75 l502 78 60 145 c121 297 136 337 153 413
25 114 17 160 -39 212 -40 37 -44 46 -55 115 -29 179 -51 215 -132 214 -59 -1
-75 -13 -136 -111 -71 -114 -124 -127 -172 -43 -31 56 -27 90 17 147 55 69 59
80 73 178 20 154 -8 255 -84 299 -23 14 -82 36 -132 50 -124 36 -185 68 -239
126 -60 64 -59 84 4 156 28 32 53 69 57 82 13 54 -64 212 -103 212 -9 0 -50
-18 -91 -41 -108 -60 -122 -53 -148 74 -7 35 -22 35 -132 -4 -111 -39 -214
-90 -278 -139 -28 -20 -65 -45 -84 -55 -42 -21 -129 -30 -207 -20 -61 7 -77
19 -150 111 l-31 39 -126 5 c-139 6 -167 18 -167 71 0 28 49 98 110 154 40 37
52 59 44 79 -10 25 -39 19 -81 -16z"/>
<path d="M17745 10690 c-115 -37 -211 -72 -213 -78 -3 -10 345 -940 358 -955
5 -6 176 47 189 58 1 2 -22 79 -53 172 l-56 168 12 121 c11 119 10 123 -15
199 l-27 78 28 35 c56 71 54 64 37 133 -32 128 -36 139 -43 138 -4 -1 -101
-32 -217 -69z"/>
<path d="M930 10689 c0 -44 -33 -180 -72 -299 -40 -123 -96 -241 -147 -310
-46 -60 -55 -87 -71 -208 -18 -138 -44 -206 -98 -260 -26 -26 -60 -56 -75 -67
-19 -14 -31 -35 -40 -70 -10 -43 -16 -51 -45 -61 -17 -5 -36 -14 -42 -20 -16
-16 -40 -182 -52 -361 -7 -95 -9 -175 -6 -178 6 -6 2329 -485 2352 -485 13 0
140 326 190 487 37 119 66 271 66 345 -1 97 -16 146 -60 195 -27 29 -40 52
-40 71 0 47 54 139 164 281 159 204 200 304 162 394 -12 30 -26 43 -70 63 -77
35 -237 69 -472 100 l-202 27 -123 -28 c-74 -17 -154 -29 -200 -29 -66 -1 -80
2 -117 27 -51 34 -72 34 -142 1 -135 -64 -158 -63 -179 5 -20 68 -58 76 -186
36 -100 -31 -142 -32 -186 -2 -49 33 -59 60 -59 167 0 155 -36 197 -175 207
l-75 6 0 -34z"/>
<path d="M17430 10603 c-183 -28 -236 -39 -302 -59 -43 -14 -91 -36 -107 -50
-91 -77 -191 -336 -191 -498 0 -58 6 -81 37 -150 47 -103 49 -145 8 -212 -39
-62 -113 -108 -209 -129 -39 -8 -147 -19 -241 -24 -203 -12 -263 -27 -317 -81
-59 -58 -54 -88 27 -167 38 -37 65 -71 65 -83 0 -51 -72 -168 -164 -267 -45
-49 -53 -63 -49 -86 3 -15 10 -27 16 -27 9 0 1320 348 1343 357 6 2 76 -52
156 -121 l144 -124 129 -42 c72 -24 135 -45 142 -47 12 -5 93 107 93 129 0 7
-25 90 -55 183 -45 139 -59 199 -76 330 l-21 160 -191 508 c-105 279 -196 506
-202 506 -5 -1 -21 -3 -35 -6z"/>
<path d="M11830 10413 c-91 -16 -414 -83 -418 -87 -2 -3 6 -47 19 -98 44 -178
29 -238 -73 -283 -81 -36 -104 -57 -124 -118 -37 -110 -8 -177 77 -177 l40 0
-8 -52 c-19 -127 -3 -201 50 -225 12 -6 65 -32 118 -57 148 -69 276 -198 405
-406 40 -64 41 -67 48 -185 8 -149 24 -241 43 -261 11 -11 27 -13 64 -8 43 6
54 3 96 -24 27 -17 66 -34 88 -37 36 -5 911 97 922 108 2 3 -1 33 -6 68 -47
303 -36 679 30 957 10 46 19 86 19 90 0 4 -31 -24 -69 -62 l-68 -68 -6 54 c-4
29 -7 74 -7 100 0 46 -1 47 -50 75 -29 16 -53 37 -55 48 -2 11 -11 67 -20 125
-8 57 -21 108 -28 112 -109 73 -109 73 -397 117 -151 23 -303 47 -338 53 l-62
10 -76 89 c-71 82 -153 151 -178 148 -6 -1 -22 -4 -36 -6z"/>
<path d="M18503 9829 l-18 -41 -285 -92 -285 -92 3 -70 c1 -38 8 -103 15 -145
l12 -76 90 29 c113 36 450 134 490 142 28 6 35 1 87 -58 44 -51 57 -74 62
-111 l7 -46 44 40 c31 29 53 41 74 41 63 0 136 51 162 112 15 37 6 45 -34 29
-18 -8 -50 -16 -73 -18 -37 -4 -44 -1 -65 27 -68 88 -71 91 -133 99 -88 12
-106 50 -67 148 21 54 16 82 -21 107 -34 24 -46 20 -65 -25z"/>
<path d="M7859 9823 l-436 -3 -7 -133 c-11 -225 -47 -1259 -44 -1262 2 -1 485
-9 1073 -19 589 -9 1210 -19 1382 -23 l312 -6 -34 129 c-29 108 -37 157 -45
298 -11 187 -23 325 -46 521 -23 201 -54 447 -60 478 l-6 27 -826 -2 c-455 -2
-1023 -4 -1263 -5z"/>
<path d="M4977 9443 c-9 -38 -20 -93 -26 -123 -20 -94 -203 -1496 -224 -1710
l-2 -25 315 -22 c299 -21 1031 -66 1862 -115 208 -12 380 -20 382 -17 6 6 71
1917 65 1923 -5 5 -2248 156 -2316 156 l-41 0 -15 -67z"/>
<path d="M18496 9429 c-22 -5 -42 -11 -44 -13 -3 -4 67 -237 74 -245 1 -2 28
11 59 29 61 35 58 25 40 118 -3 15 -25 48 -48 73 -41 46 -43 46 -81 38z"/>
<path d="M18171 9334 c-113 -35 -207 -67 -209 -69 -3 -3 14 -52 37 -110 48
-120 67 -199 58 -236 -4 -14 -25 -54 -48 -89 -47 -72 -69 -134 -69 -191 0 -33
4 -40 26 -45 112 -28 442 157 432 242 -2 20 -11 31 -29 38 -40 14 -69 1 -127
-54 -31 -29 -63 -50 -76 -50 -68 0 -59 94 18 179 11 13 61 43 111 68 93 46
185 109 185 128 0 5 -17 64 -38 130 -24 77 -43 121 -52 122 -8 1 -107 -27
-219 -63z"/>
<path d="M16680 8899 c-366 -98 -677 -181 -692 -184 -23 -5 -27 -3 -33 24 -4
17 -10 33 -15 36 -4 3 -43 -34 -86 -81 l-79 -87 120 -474 c66 -261 123 -480
127 -486 5 -9 127 18 440 97 810 205 1082 277 1114 297 64 39 194 204 194 244
0 6 -37 30 -81 54 -92 51 -133 93 -150 153 -14 53 -7 109 31 240 17 57 30 108
30 114 0 9 -100 101 -235 214 -19 17 -52 9 -685 -161z"/>
<path d="M17617 8733 c-68 -223 -41 -292 150 -383 l74 -36 -35 -67 c-19 -37
-57 -96 -84 -130 l-50 -62 48 -101 47 -101 59 -14 58 -15 25 -63 c17 -45 26
-59 32 -49 15 28 98 325 114 414 21 108 23 245 6 297 -14 43 -40 57 -101 57
-83 0 -95 50 -54 240 5 24 1 26 -123 63 -70 21 -131 38 -134 37 -3 0 -18 -39
-32 -87z"/>
<path d="M264 8774 c-4 -14 -3 -42 2 -62 4 -20 8 -64 8 -97 0 -77 -30 -139
-131 -277 -41 -57 -91 -134 -109 -173 -54 -111 -45 -171 46 -305 83 -122 87
-156 33 -280 -36 -81 -38 -90 -38 -195 0 -88 5 -124 23 -180 31 -92 79 -194
132 -280 70 -114 73 -128 74 -331 l1 -181 48 -94 c43 -86 47 -100 47 -165 0
-122 51 -351 109 -492 17 -40 55 -111 85 -157 111 -170 125 -216 135 -440 9
-215 -4 -200 271 -303 162 -61 351 -144 390 -172 20 -14 34 -37 44 -74 14 -47
23 -59 69 -91 240 -171 329 -300 367 -530 22 -134 55 -177 160 -210 143 -44
708 -19 812 36 46 24 48 51 13 162 -30 95 -31 139 -4 219 25 74 63 133 139
213 31 33 64 72 74 87 l18 27 -72 128 c-198 350 -501 804 -1275 1908 -204 292
-384 548 -399 571 l-27 41 151 723 c82 398 148 725 147 727 -2 1 -145 32 -318
67 -812 168 -1001 206 -1009 206 -6 0 -13 -11 -16 -26z"/>
<path d="M11020 8734 c-432 -34 -808 -63 -837 -63 -28 -1 -54 -4 -56 -8 -3 -5
30 -159 73 -343 43 -184 115 -496 161 -692 82 -356 83 -358 108 -358 14 0 114
20 221 44 450 101 628 128 845 128 215 0 349 -34 448 -113 l37 -30 0 58 c0 32
11 119 24 195 30 175 42 196 144 244 145 69 188 122 180 221 -4 47 -15 69 -96
190 -50 76 -104 153 -119 171 -26 34 -27 34 -89 27 -55 -6 -65 -4 -83 14 -26
26 -49 107 -56 201 -3 41 -8 99 -11 128 l-5 52 -52 -1 c-29 -1 -405 -30 -837
-65z"/>
<path d="M15615 8489 c-216 -158 -417 -268 -505 -277 -61 -6 -128 10 -252 59
l-96 38 -202 -37 -201 -36 4 -26 c3 -14 52 -283 108 -597 l103 -573 46 0 c47
0 84 -18 109 -54 38 -56 109 -113 157 -127 111 -32 259 -8 357 58 27 18 52 31
57 28 4 -3 25 -32 46 -65 22 -33 42 -59 46 -57 3 1 41 70 84 152 105 203 114
218 210 315 87 89 147 178 165 243 14 53 14 153 -1 294 -12 106 -12 124 3 168
l17 48 -68 264 c-37 144 -69 263 -72 263 -3 0 -55 -36 -115 -81z"/>
<path d="M1656 8509 c-3 -8 -70 -330 -150 -716 l-146 -702 362 -518 c198 -285
546 -783 772 -1108 l411 -589 6 154 c7 169 23 239 65 289 40 48 77 55 164 31
41 -11 92 -20 112 -20 60 0 63 11 64 290 0 235 2 256 43 530 106 711 137 920
217 1444 47 307 84 560 82 561 -2 1 -55 10 -118 19 -497 74 -1776 308 -1864
342 -9 3 -18 0 -20 -7z"/>
<path d="M13055 8440 c-27 -4 -205 -29 -395 -56 -190 -26 -355 -51 -367 -55
-34 -13 -28 -35 29 -113 93 -128 115 -202 84 -289 -29 -80 -55 -102 -209 -172
-37 -17 -62 -37 -72 -54 -25 -49 -55 -294 -55 -446 0 -420 160 -636 489 -664
65 -5 76 -9 94 -34 20 -26 20 -31 8 -105 -25 -149 -25 -181 -1 -207 12 -12 62
-40 113 -61 109 -45 166 -96 191 -170 8 -27 25 -109 36 -182 25 -170 47 -214
93 -190 15 7 16 17 11 57 -9 66 9 117 48 137 27 14 39 14 89 4 31 -7 62 -10
67 -6 5 3 13 26 16 51 5 29 23 68 53 112 71 104 85 149 85 278 0 125 3 136 59
210 59 78 61 96 27 189 -92 252 -129 471 -178 1053 -40 476 -38 461 -107 600
l-58 118 -50 2 c-27 0 -72 -3 -100 -7z"/>
<path d="M7366 8282 c-9 -146 -30 -852 -25 -856 2 -2 146 -9 319 -15 173 -7
339 -14 368 -17 l52 -5 0 -965 0 -964 23 0 c12 0 501 11 1087 25 586 13 1220
27 1410 30 190 4 350 8 355 10 7 2 0 162 -22 481 -17 264 -32 495 -33 515 0
31 -34 82 -247 370 l-247 334 -128 549 c-70 302 -129 551 -131 552 -2 2 -543
13 -1203 23 -659 11 -1283 22 -1385 25 l-187 4 -6 -96z"/>
<path d="M13985 8184 c-170 -23 -313 -43 -316 -43 -3 -1 -39 -30 -80 -66 -41
-35 -78 -65 -83 -65 -5 0 -31 16 -57 35 -27 19 -53 35 -57 35 -9 0 26 -399 59
-670 40 -336 100 -622 160 -767 18 -42 28 -80 24 -92 -3 -11 -30 -52 -60 -93
-51 -70 -79 -136 -68 -163 3 -10 14 -7 40 11 20 13 47 24 60 24 14 0 63 -21
110 -46 l85 -47 24 25 c14 13 48 64 78 113 56 95 98 132 136 120 11 -4 43 -29
72 -56 29 -28 60 -49 73 -49 21 0 22 4 21 74 -1 88 9 103 96 147 31 16 59 33
62 38 3 5 1 33 -4 62 -8 42 -7 57 5 76 18 26 32 31 135 41 45 5 74 12 73 19
-1 6 -13 59 -27 119 -31 137 -88 440 -166 884 -65 368 -68 381 -78 379 -4 -1
-146 -21 -317 -45z"/>
<path d="M3706 8129 c-12 -53 -348 -2370 -345 -2373 5 -4 1835 -186 1869 -186
l26 0 73 955 c41 526 72 958 69 960 -3 3 -166 17 -364 31 -197 14 -360 27
-361 28 -1 1 11 112 27 246 16 135 26 247 22 251 -4 3 -216 27 -472 53 -256
26 -482 50 -502 53 -33 5 -38 3 -42 -18z"/>
<path d="M17598 8010 l-26 -20 85 -258 c47 -141 89 -261 94 -266 8 -10 126 12
134 24 6 9 -240 533 -252 537 -5 2 -21 -6 -35 -17z"/>
<path d="M16980 7831 c-294 -76 -548 -141 -564 -145 l-28 -7 6 -72 c12 -124 8
-124 106 -18 l87 94 48 -12 c46 -12 52 -11 133 26 l85 38 121 -64 c67 -35 165
-88 218 -118 l97 -54 3 -76 3 -76 80 -22 c265 -74 388 -183 387 -345 -1 -98
13 -138 52 -157 52 -24 83 -11 109 45 20 42 22 63 21 187 -1 130 -27 361 -42
377 -4 4 -45 -2 -91 -13 -47 -11 -88 -16 -91 -12 -4 4 -49 133 -100 286 -50
152 -95 277 -98 276 -4 -1 -248 -63 -542 -138z"/>
<path d="M15898 7835 c4 -60 7 -162 7 -226 0 -111 -1 -116 -31 -162 -16 -26
-73 -93 -126 -150 -53 -57 -111 -127 -130 -157 -40 -62 -188 -354 -188 -370 0
-13 228 -313 241 -318 5 -2 17 10 26 27 10 17 20 31 23 31 3 0 17 -20 32 -43
39 -62 95 -117 119 -117 18 0 89 65 89 82 0 14 78 60 117 69 24 5 64 4 106 -3
67 -11 69 -11 95 16 l27 26 7 223 c7 236 14 278 54 327 31 36 81 40 139 13 33
-16 39 -16 63 -2 37 20 75 93 117 221 62 191 59 186 139 224 39 19 78 34 88
34 9 0 22 10 29 21 12 24 11 26 -55 60 l-38 21 -81 -37 c-74 -34 -83 -36 -121
-26 l-41 11 -111 -117 c-62 -65 -114 -116 -117 -113 -2 3 -12 61 -21 129 -9
68 -18 126 -21 129 -2 3 -79 -14 -171 -37 -92 -23 -171 -38 -175 -34 -4 4 -28
87 -53 183 l-46 175 8 -110z"/>
<path d="M16984 7576 c-4 -18 -17 -29 -42 -37 -121 -39 -142 -50 -161 -87 -10
-20 -33 -84 -51 -142 -71 -233 -140 -300 -254 -245 -46 22 -63 15 -91 -41 -17
-34 -20 -68 -26 -254 -6 -234 -14 -269 -64 -308 -31 -25 -77 -28 -135 -11 -69
21 -106 5 -185 -75 -38 -40 -78 -76 -88 -80 -27 -9 -70 17 -120 75 l-45 51
-15 -23 c-8 -13 -31 -53 -52 -89 -58 -97 -152 -237 -208 -309 -36 -44 -45 -62
-31 -57 10 3 289 66 619 140 330 74 841 188 1135 254 294 66 562 126 595 132
35 8 67 21 78 32 25 30 22 84 -8 113 -20 21 -33 25 -88 25 -92 0 -94 4 -107
186 -12 166 -22 219 -49 272 -36 71 -118 129 -255 182 l-86 33 0 78 0 78 -117
63 c-65 35 -123 64 -130 66 -7 2 -15 -8 -19 -22z"/>
<path d="M5454 7477 c-4 -12 -153 -1909 -150 -1914 1 -1 541 -27 1201 -58 958
-45 1233 -55 1363 -50 l162 7 0 944 0 944 -47 0 c-134 0 -822 35 -1498 75
-418 25 -807 47 -865 50 -58 3 -118 8 -133 10 -17 3 -30 0 -33 -8z"/>
<path d="M11390 7384 c-115 -12 -271 -39 -582 -101 l-337 -67 27 -36 c15 -20
121 -164 236 -320 l210 -283 44 -656 c24 -361 45 -657 47 -659 2 -2 390 24
862 57 472 34 866 61 876 61 15 0 17 -11 17 -100 l0 -100 64 0 64 0 16 68 c30
135 39 244 33 412 -8 201 -26 307 -64 369 -25 41 -42 53 -148 106 -74 37 -127
71 -139 88 -25 34 -27 107 -6 215 20 103 18 105 -121 118 -141 13 -188 34
-280 124 -106 105 -172 267 -186 463 -6 85 -7 88 -44 122 -88 80 -207 115
-404 120 -77 1 -160 1 -185 -1z"/>
<path d="M14590 6982 c0 -4 11 -46 25 -93 13 -46 25 -89 25 -95 0 -8 -36 -13
-110 -16 -65 -2 -114 -8 -121 -15 -9 -9 -9 -23 0 -58 17 -67 1 -93 -77 -130
-35 -17 -68 -39 -74 -49 -6 -11 -7 -43 -3 -81 6 -57 4 -66 -15 -85 -36 -36
-89 -23 -155 39 -30 28 -58 51 -64 51 -18 0 -50 -42 -90 -120 -77 -147 -124
-165 -233 -89 -68 47 -96 49 -141 10 -26 -24 -39 -50 -66 -135 -27 -84 -42
-116 -77 -156 -39 -46 -44 -57 -44 -101 0 -91 -20 -103 -120 -73 -41 12 -59
13 -78 4 -24 -10 -25 -13 -18 -85 9 -102 1 -115 -69 -115 l-55 0 0 -50 c0 -50
0 -50 33 -50 17 0 127 9 242 20 116 11 213 20 217 20 4 0 8 28 10 63 l3 62
260 36 c143 21 427 60 630 88 673 94 753 108 820 140 76 38 158 111 223 198
77 105 175 272 168 289 -7 19 -334 462 -347 469 -5 4 -36 -7 -69 -24 -80 -39
-158 -55 -250 -48 -108 7 -185 39 -218 89 -51 78 -77 98 -121 98 -23 0 -41 -4
-41 -8z"/>
<path d="M17700 6409 c-109 -25 -1729 -389 -1733 -389 -1 0 -2 -28 -2 -63 0
-50 -6 -72 -28 -109 -36 -61 -82 -98 -259 -206 -214 -131 -307 -208 -403 -336
-40 -55 -129 -225 -121 -233 3 -3 94 11 203 32 l198 37 75 67 c225 201 416
321 511 321 16 0 42 -6 57 -14 26 -13 100 -87 172 -172 69 -80 88 -88 203 -89
84 0 113 4 162 24 80 32 125 36 180 18 60 -21 186 -104 319 -211 121 -97 129
-99 210 -53 54 30 75 70 92 179 19 117 49 185 101 226 22 17 96 65 164 107 68
42 141 94 162 116 37 38 38 41 22 59 -9 10 -37 23 -63 30 -53 13 -92 44 -92
73 0 10 15 34 33 51 26 27 43 34 91 40 79 9 94 19 124 84 47 103 30 212 -33
212 -28 0 -42 -16 -80 -94 -29 -60 -31 -61 -75 -64 -108 -8 -190 30 -190 88 0
37 33 68 141 131 115 67 129 105 57 149 -41 25 -46 25 -198 -11z"/>
<path d="M15845 5989 c-258 -82 -1343 -267 -2040 -349 -248 -29 -225 -19 -225
-90 0 -71 33 -61 -305 -91 -132 -12 -241 -22 -242 -23 -5 -4 -181 -721 -178
-725 3 -2 487 72 1077 164 590 92 1092 170 1114 172 41 5 42 7 74 79 45 104
141 245 219 324 82 84 157 138 329 242 75 45 154 98 176 117 46 42 75 101 76
154 0 32 -3 37 -22 36 -13 0 -36 -5 -53 -10z"/>
<path d="M3366 5561 c8 -170 -1 -217 -47 -255 -35 -30 -63 -32 -165 -12 -131
25 -175 -17 -194 -184 -11 -95 1 -349 18 -392 6 -15 36 -69 67 -119 93 -155
92 -183 -9 -308 -171 -212 -176 -229 -129 -423 24 -100 25 -113 12 -137 -21
-37 -73 -69 -125 -77 -24 -3 -46 -10 -49 -14 -7 -12 92 -101 176 -157 247
-167 805 -448 1189 -599 143 -56 237 -77 415 -94 159 -15 509 -30 516 -22 7 7
213 2742 207 2747 -2 2 -417 44 -923 94 -506 50 -930 93 -942 95 l-23 3 6
-146z"/>
<path d="M5296 5458 c-4 -29 -22 -267 -41 -528 -19 -261 -62 -837 -95 -1280
-33 -443 -61 -825 -62 -850 -3 -43 -2 -44 32 -52 135 -29 283 -30 294 -3 2 7
-1 42 -7 79 -9 57 -9 70 6 101 45 95 214 104 535 29 153 -35 148 -37 144 41
-2 36 0 65 5 65 5 0 343 -32 752 -70 409 -39 745 -69 747 -68 5 6 33 2472 28
2477 -5 6 -2139 109 -2266 110 l-67 1 -5 -52z"/>
<path d="M9345 5443 c-830 -18 -1542 -36 -1581 -39 l-71 -5 -6 -101 c-4 -56
-4 -105 -1 -109 3 -5 273 -9 600 -9 l594 0 1 -202 c1 -112 5 -336 8 -498 l6
-295 30 -3 c84 -8 346 -57 470 -87 77 -18 244 -66 370 -105 249 -77 449 -131
561 -150 83 -15 102 -10 305 76 198 85 285 83 423 -10 36 -24 66 -41 66 -37 0
12 -139 1504 -145 1559 l-6 52 -57 -1 c-31 -1 -736 -17 -1567 -36z"/>
<path d="M16024 5442 c-183 -98 -447 -322 -480 -408 -24 -63 -14 -76 70 -90
102 -17 124 -40 189 -192 18 -40 27 -47 140 -104 232 -115 323 -195 442 -384
110 -175 194 -300 215 -319 18 -16 20 -15 43 32 14 26 30 75 37 108 23 107 51
142 200 242 123 84 197 187 260 360 48 134 77 188 128 245 19 21 33 40 31 42
-2 1 -47 36 -99 78 -182 144 -296 209 -368 210 -24 0 -63 -12 -103 -31 -52
-25 -76 -31 -131 -31 -147 0 -194 25 -308 165 -103 126 -148 139 -266 77z"/>
<path d="M11852 5269 c-442 -31 -806 -60 -810 -63 -10 -10 130 -1361 142
-1368 17 -11 56 -9 114 5 28 8 53 12 56 10 2 -2 2 -61 -1 -131 -2 -72 0 -133
5 -141 8 -12 99 -5 578 40 338 32 572 59 579 65 15 15 55 373 55 487 0 100 11
130 65 175 34 28 36 33 39 98 3 78 18 112 82 194 40 52 45 67 93 263 28 114
51 214 51 222 0 12 -17 15 -80 15 l-80 0 0 95 0 95 -42 -1 c-24 -1 -405 -28
-846 -60z"/>
<path d="M7685 5128 c-2 -7 -9 -517 -16 -1133 -6 -616 -13 -1122 -15 -1124 -3
-4 -1398 125 -1466 135 -37 6 -38 5 -38 -25 0 -42 35 -143 67 -194 39 -62 107
-131 223 -225 190 -155 231 -195 315 -302 112 -143 132 -186 161 -347 14 -73
33 -157 44 -186 70 -188 469 -369 629 -287 22 11 48 34 59 52 19 32 26 58 53
196 16 82 51 130 120 164 181 88 399 42 596 -127 79 -67 244 -287 588 -780
103 -148 194 -285 202 -304 8 -18 32 -101 54 -185 49 -189 70 -230 138 -278
167 -117 603 -215 726 -164 64 27 61 97 -13 271 -69 162 -72 182 -57 314 13
113 11 138 -21 243 -28 93 1 128 105 128 82 0 148 26 201 79 43 43 52 61 85
164 42 130 70 168 125 169 25 1 39 -7 68 -39 111 -121 253 -109 342 28 77 119
116 288 100 432 -12 102 -7 130 27 157 26 20 78 26 99 12 19 -12 36 -52 43
-100 3 -26 13 -49 23 -56 22 -14 85 3 183 48 l73 34 36 148 c83 344 86 531 11
660 -13 22 -53 76 -89 119 -80 96 -127 183 -159 295 -30 101 -50 252 -45 335
3 53 5 60 26 63 22 3 22 6 22 138 l0 135 -47 -7 c-62 -7 -115 11 -245 84 -87
48 -110 57 -164 60 -75 5 -104 -4 -264 -82 -124 -61 -125 -61 -210 -60 -100 1
-158 16 -486 119 -349 111 -643 180 -964 227 l-85 13 -5 495 c-3 272 -7 496
-8 498 -1 1 -259 2 -572 2 -448 0 -571 -3 -575 -12z"/>
<path d="M15061 5002 c-248 -47 -406 -82 -408 -89 -6 -16 48 -272 87 -420 56
-210 147 -439 273 -688 78 -154 81 -172 52 -284 -8 -32 -15 -70 -15 -83 0 -46
42 -184 102 -335 l61 -153 221 0 c349 0 566 25 683 80 72 33 93 64 93 138 0
33 5 54 16 63 21 17 105 23 187 12 l68 -10 -8 56 c-13 93 -8 250 11 331 10 41
38 116 61 167 l43 91 -59 79 c-32 43 -90 132 -130 198 -40 66 -92 145 -115
175 -87 115 -207 205 -379 286 -94 44 -132 77 -153 133 -7 17 -17 44 -23 60
-17 47 -50 69 -131 90 -42 10 -81 22 -88 26 -28 18 -31 76 -5 138 6 13 2 17
-16 16 -13 0 -206 -35 -428 -77z"/>
<path d="M14130 4844 c-228 -35 -421 -67 -429 -69 -20 -8 -10 -1174 13 -1435
24 -277 55 -495 93 -648 l16 -63 41 39 c50 49 81 65 106 57 20 -6 45 -67 37
-89 -3 -8 0 -22 8 -32 12 -17 17 -17 62 -6 26 7 52 17 56 21 5 5 -8 59 -27
121 -20 63 -34 115 -33 117 2 2 235 51 518 109 283 59 515 108 517 109 1 1
-10 36 -26 76 -74 186 -84 257 -58 424 l12 80 -77 156 c-131 263 -207 455
-262 659 -22 81 -97 417 -97 434 0 11 -55 4 -470 -60z"/>
<path d="M13575 4760 c-27 -5 -205 -30 -395 -56 l-345 -47 -42 -45 c-49 -53
-78 -127 -70 -179 8 -49 -14 -96 -57 -122 -42 -27 -43 -30 -50 -186 -2 -66
-14 -197 -26 -292 l-21 -171 37 -74 c56 -112 74 -172 74 -252 -1 -85 -18 -133
-118 -315 -128 -234 -143 -345 -50 -373 48 -14 141 7 343 80 232 83 304 89
370 31 43 -38 70 -110 91 -237 8 -53 17 -98 19 -100 1 -2 30 10 64 27 93 47
202 89 296 112 47 12 85 25 85 29 0 5 -9 46 -20 92 -42 181 -77 444 -101 753
-6 83 -13 416 -15 740 -3 325 -8 591 -12 591 -4 1 -29 -2 -57 -6z"/>
<path d="M11955 3574 c-291 -29 -544 -53 -562 -54 -25 0 -32 -5 -35 -22 -2
-17 -11 -24 -30 -26 -33 -4 -33 -8 -18 -162 20 -192 66 -296 207 -462 105
-124 124 -173 131 -328 5 -127 -12 -270 -54 -455 -14 -60 -27 -122 -30 -136
l-6 -26 104 -12 c447 -55 630 -14 615 137 -6 55 21 90 75 99 62 9 116 -25 236
-153 66 -71 123 -122 150 -135 l42 -21 73 22 c99 30 152 24 213 -24 26 -20 49
-34 52 -32 2 3 5 47 6 98 4 154 24 166 149 92 43 -26 80 -44 83 -41 3 3 0 24
-6 47 -15 54 -1 96 52 157 22 26 37 52 34 60 -3 8 -6 17 -6 19 0 2 -16 4 -35
4 -71 0 -91 44 -125 270 -22 144 -53 230 -92 251 -34 18 -112 3 -295 -55 -289
-93 -397 -105 -448 -50 -32 34 -37 77 -20 157 15 74 36 120 115 262 70 127 94
202 94 300 1 90 -18 155 -64 229 -22 34 -36 46 -52 45 -13 -1 -261 -25 -553
-55z"/>
<path d="M16260 3165 c0 -90 -68 -165 -188 -206 -120 -42 -213 -51 -557 -56
l-331 -6 -24 62 c-15 37 -31 61 -40 61 -24 0 -974 -193 -982 -199 -4 -4 6 -47
22 -96 l29 -90 104 1 c124 2 195 20 267 69 29 19 59 35 67 35 25 0 74 -34 265
-186 155 -123 186 -144 216 -144 31 0 47 12 150 115 130 130 140 135 273 135
106 0 192 -24 275 -78 64 -42 174 -154 200 -203 11 -23 20 -29 32 -24 76 32
71 33 112 -11 42 -46 70 -121 70 -188 0 -23 -7 -86 -15 -141 -24 -168 -21
-211 24 -313 86 -196 170 -342 196 -342 8 0 35 18 61 41 79 69 123 40 87 -58
-25 -71 -20 -88 41 -139 46 -38 60 -63 71 -124 15 -86 40 -109 104 -97 16 3
45 2 64 -4 44 -12 67 -48 97 -149 46 -157 70 -180 158 -155 113 33 159 82 147
156 -5 30 1 65 27 147 32 105 33 111 33 287 0 119 -5 199 -14 235 -8 30 -48
133 -89 230 -41 96 -105 256 -144 355 -89 231 -131 314 -287 559 -70 110 -137
217 -148 236 -39 64 -111 215 -123 257 -7 23 -20 45 -29 48 -9 4 -62 9 -118
12 l-103 6 0 -38z"/>
</g>
</svg>
