<?xml version="1.0" standalone="no"?>
<!DOCTYPE svg PUBLIC "-//W3C//DTD SVG 20010904//EN"
 "http://www.w3.org/TR/2001/REC-SVG-20010904/DTD/svg10.dtd">
<svg version="1.0" xmlns="http://www.w3.org/2000/svg"
 width="685.000000pt" height="1022.000000pt" viewBox="0 0 685.000000 1022.000000"
 preserveAspectRatio="xMidYMid meet">
<metadata>
Created by potrace 1.16, written by Peter Selinger 2001-2019
</metadata>
<g transform="translate(0.000000,1022.000000) scale(0.100000,-0.100000)"
fill="#000000" stroke="none">
<path d="M6450 9864 c0 -56 -45 -96 -81 -70 -31 21 -87 3 -126 -42 -30 -36
-32 -36 -46 -18 -14 19 -16 18 -36 -22 -11 -23 -21 -43 -21 -46 0 -3 17 -10
39 -17 31 -9 40 -18 49 -47 9 -29 8 -37 -5 -47 -22 -16 -10 -31 29 -39 19 -4
28 -10 22 -15 -13 -12 -104 -20 -104 -9 0 5 -10 4 -21 -3 -12 -6 -37 -9 -55
-6 -33 6 -34 5 -34 -28 0 -33 21 -52 42 -38 6 3 8 1 5 -4 -4 -6 7 -16 25 -22
30 -11 30 -12 14 -30 -14 -16 -15 -23 -6 -41 l12 -22 29 28 c27 26 30 27 42
10 12 -16 17 -17 38 -6 20 10 22 10 12 -1 -7 -7 -13 -31 -13 -53 0 -24 -19
-87 -44 -150 l-43 -109 26 -39 25 -39 13 56 c7 30 12 66 10 78 -1 16 4 23 21
25 18 3 22 10 22 39 0 20 10 55 22 79 20 41 21 49 9 110 -11 62 -7 105 6 56 7
-27 15 -27 41 -4 22 20 48 104 37 123 -5 8 -4 10 3 5 7 -4 12 -3 12 3 0 5 3
16 6 25 5 13 -1 16 -30 16 -44 0 -46 9 -5 33 21 11 29 22 25 33 -3 8 -2 13 3
10 4 -3 17 5 28 18 17 19 19 31 13 69 -4 25 -12 53 -20 61 -8 11 -9 16 -1 16
6 0 11 -4 11 -10 0 -6 9 -5 24 1 16 8 26 22 29 46 8 46 0 63 -29 63 -19 0 -24
-5 -24 -26z"/>
<path d="M4139 9818 c-6 -24 -15 -54 -19 -68 -4 -14 -5 -44 -1 -65 6 -33 11
-40 28 -38 15 2 23 -5 27 -22 5 -19 12 -23 36 -23 16 1 28 4 26 7 -2 3 13 6
35 6 33 1 40 -3 50 -27 6 -16 25 -38 40 -49 25 -18 30 -18 35 -5 4 9 18 16 34
16 22 0 29 5 33 28 5 28 -2 47 -10 25 -3 -7 -12 -13 -20 -13 -11 0 -14 7 -11
25 7 34 -11 43 -32 17 -19 -23 -40 -13 -40 20 0 11 -5 15 -15 12 -8 -4 -15 -1
-15 5 0 6 -3 10 -7 10 -24 -4 -43 3 -43 15 0 8 -6 17 -12 20 -9 4 -8 5 2 5 56
-4 73 9 60 47 -8 24 -20 32 -54 42 -30 8 -45 18 -49 32 -4 15 -13 20 -36 20
-27 0 -31 -4 -42 -42z"/>
<path d="M2300 9449 c-41 -22 -87 -48 -102 -59 -15 -11 -30 -20 -34 -20 -13 0
-139 -40 -152 -48 -10 -7 -9 -18 3 -57 8 -27 12 -51 10 -53 -2 -2 -15 18 -29
45 l-26 48 2 -35 c3 -30 0 -35 -21 -38 -18 -3 -22 0 -18 12 4 11 -3 21 -25 32
-18 9 -34 12 -35 7 -2 -5 -19 -33 -39 -63 -29 -44 -34 -60 -29 -87 3 -19 10
-31 15 -28 6 3 7 -1 4 -9 -4 -11 3 -16 28 -18 32 -3 32 -4 -17 -19 -72 -21
-72 -44 0 -94 31 -21 63 -38 70 -38 12 0 12 -3 3 -15 -7 -8 -23 -12 -42 -9
-21 3 -40 -2 -59 -15 -20 -14 -37 -18 -58 -14 -18 3 -29 1 -29 -6 0 -19 52
-118 62 -118 19 0 68 31 63 40 -3 6 0 7 8 4 8 -3 18 -1 22 5 3 6 20 11 37 11
29 0 30 2 26 36 -4 35 -3 36 25 30 l29 -6 -7 51 c-5 37 -4 50 4 45 6 -4 11
-20 11 -36 0 -36 4 -38 67 -31 40 5 61 14 97 45 40 33 46 43 46 76 0 37 0 37
-50 44 -58 8 -67 26 -12 26 67 0 82 9 82 46 0 37 -5 36 73 19 31 -6 61 10 50
28 -3 5 -1 7 4 4 6 -4 16 0 23 8 16 20 -1 20 -39 1 -15 -8 -38 -12 -49 -9 -21
5 -20 7 13 46 37 43 75 113 75 139 0 9 7 21 15 28 8 7 15 18 15 26 0 18 -22
64 -29 63 -3 -1 -40 -19 -81 -40z"/>
<path d="M3111 9458 c-6 -7 -29 -35 -51 -61 -47 -56 -49 -71 -15 -93 30 -20
33 -38 4 -29 -15 5 -22 2 -26 -13 -3 -12 -11 -18 -18 -16 -7 3 -23 -7 -35 -23
-31 -39 -22 -88 25 -131 41 -38 45 -49 9 -26 -18 13 -43 17 -86 15 -52 -2 -62
0 -75 19 -10 15 -19 18 -25 12 -12 -12 8 -108 23 -118 6 -3 5 -11 -2 -20 -6
-8 -9 -24 -7 -37 6 -31 -28 -34 -59 -6 -24 23 -43 18 -43 -11 0 -20 38 -62 49
-55 4 2 8 -10 9 -27 2 -19 12 -38 27 -50 14 -11 24 -25 23 -31 -1 -7 3 -22 10
-34 13 -24 -1 -33 -15 -10 -11 19 -73 48 -86 40 -6 -3 -7 -1 -3 5 4 7 2 12 -3
12 -18 0 -12 -28 7 -34 9 -3 23 -20 31 -36 15 -35 9 -53 -8 -22 -6 10 -22 27
-36 36 -25 17 -28 17 -45 1 -25 -22 -50 -13 -50 18 0 14 -7 30 -15 37 -13 11
-19 9 -35 -8 -24 -25 -25 -45 -5 -62 9 -7 14 -26 12 -45 -2 -28 -5 -32 -19
-24 -15 8 -38 65 -38 94 0 15 -57 18 -66 3 -4 -7 -7 -26 -6 -43 1 -16 -2 -37
-7 -44 -13 -20 5 -51 29 -51 14 0 20 -7 20 -21 0 -14 -5 -19 -14 -16 -8 3 -29
-8 -48 -26 -26 -25 -29 -32 -16 -35 9 -2 22 -21 30 -45 11 -36 19 -44 58 -58
35 -14 41 -19 27 -24 -10 -4 -21 -5 -24 -1 -3 3 -12 1 -20 -6 -11 -9 -15 -7
-20 10 -3 12 -11 22 -18 22 -6 0 -20 9 -30 20 -10 11 -24 20 -30 20 -22 0 -49
-91 -48 -158 2 -92 27 -112 88 -72 40 26 45 25 45 -10 0 -25 -4 -30 -24 -30
-23 0 -76 -34 -76 -49 0 -7 80 -31 106 -31 19 0 53 -39 53 -60 0 -10 -8 -5
-24 13 -21 24 -30 27 -60 21 -23 -4 -35 -12 -35 -23 0 -9 -9 -22 -20 -29 -28
-17 -25 -39 9 -56 28 -15 47 -43 36 -54 -3 -3 -21 0 -40 7 -19 7 -40 9 -46 5
-8 -4 -9 -3 -5 4 13 21 -10 13 -32 -11 -29 -30 -28 -45 3 -59 14 -6 25 -19 25
-29 0 -18 19 -29 51 -29 11 0 17 -4 14 -10 -12 -19 -47 -10 -73 20 -19 22 -35
30 -59 30 -29 0 -34 -5 -54 -49 -12 -30 -29 -51 -41 -54 -38 -10 -7 -27 50
-27 51 -1 55 -2 38 -15 -10 -7 -15 -18 -12 -24 4 -6 -11 -15 -33 -21 -44 -11
-61 -32 -54 -61 7 -24 2 -24 -26 0 -13 11 -29 17 -36 15 -7 -3 -37 -1 -66 4
-60 11 -79 1 -79 -42 0 -27 32 -52 51 -40 6 3 21 2 32 -4 12 -6 43 -16 70 -23
63 -18 61 -35 -4 -30 l-52 3 7 -32 c3 -18 6 -36 6 -40 0 -16 57 -63 92 -77 21
-8 38 -21 38 -28 0 -24 17 -26 62 -6 50 21 83 54 75 74 -4 10 0 13 12 10 10
-2 23 3 30 11 8 9 20 16 28 16 17 0 106 63 126 88 7 10 27 30 44 45 l31 29 -2
-25 c0 -14 -3 -25 -6 -24 -3 1 -20 -9 -37 -23 -35 -25 -43 -50 -18 -50 26 0
16 -20 -10 -21 -14 -1 -29 -3 -35 -4 -5 -1 -14 -3 -20 -4 -5 0 -10 -6 -10 -12
0 -7 -18 -31 -40 -55 -22 -24 -37 -49 -34 -57 3 -9 -6 -19 -25 -27 -34 -14
-39 -25 -16 -34 8 -3 15 -9 15 -13 0 -8 -49 -36 -82 -47 -12 -4 -18 -16 -18
-38 0 -33 -30 -65 -49 -53 -15 8 -61 -90 -54 -115 6 -22 7 -21 22 11 13 28 22
34 49 35 35 1 39 -3 17 -20 -8 -6 -16 -21 -18 -33 -2 -12 -7 -26 -12 -30 -4
-5 -4 -2 0 6 5 9 -2 7 -18 -5 -26 -19 -41 -43 -33 -52 3 -2 17 5 32 17 35 27
50 27 24 -1 -11 -12 -20 -25 -20 -28 0 -3 -31 -38 -70 -78 -38 -39 -70 -76
-70 -81 0 -26 22 -18 51 19 18 22 37 40 42 40 5 0 4 -6 -2 -13 -6 -8 -10 -16
-8 -18 1 -2 1 -3 -1 -2 -7 3 -72 -75 -72 -86 0 -14 27 -15 35 -1 3 6 11 10 17
10 5 0 -3 -15 -20 -34 -37 -42 -47 -72 -32 -91 6 -8 9 -18 6 -23 -3 -6 0 -15
7 -21 11 -8 24 -2 56 25 23 20 45 33 49 29 8 -8 -42 -53 -88 -78 -28 -15 -31
-20 -19 -29 11 -8 11 -9 -4 -4 -22 7 -57 -27 -57 -56 0 -12 -12 -39 -26 -60
-20 -28 -28 -54 -32 -103 -5 -66 -5 -66 -42 -81 -39 -16 -50 -35 -50 -85 0
-29 12 -37 73 -49 33 -6 43 -4 69 18 27 23 29 30 24 64 -5 32 -2 43 19 66 14
15 33 44 42 65 9 20 20 37 24 37 4 0 10 11 13 24 3 13 9 32 13 42 4 12 3 15
-5 10 -8 -5 -10 -2 -5 9 4 13 8 14 14 4 10 -16 33 37 25 58 -3 8 -2 12 3 9 5
-3 16 5 25 19 9 14 25 25 36 25 14 0 18 5 13 17 -4 11 -3 14 5 9 18 -11 15 26
-8 79 -13 31 -20 69 -20 112 l0 65 27 -7 c24 -6 35 1 87 55 114 116 153 146
200 154 36 7 38 6 27 -8 -8 -9 -19 -16 -25 -16 -7 0 -25 -14 -41 -30 -16 -16
-35 -30 -42 -30 -14 0 -113 -86 -152 -133 -22 -26 -25 -39 -24 -100 1 -56 5
-74 19 -84 26 -19 34 -16 34 12 0 14 5 25 10 25 6 0 10 -9 10 -20 0 -11 7 -23
16 -27 11 -4 14 -16 12 -40 -1 -19 2 -37 8 -41 6 -4 14 -19 17 -33 10 -40 33
-44 35 -5 0 17 4 48 7 69 6 30 4 37 -9 37 -9 0 -16 8 -16 21 0 14 -4 18 -12
12 -7 -4 -5 5 5 21 13 19 17 37 12 54 -5 20 -4 24 5 16 6 -7 12 -32 12 -57 0
-36 4 -46 19 -50 14 -4 27 6 49 39 16 25 30 52 30 60 0 7 4 14 9 14 5 0 12 16
16 36 7 42 19 38 19 -8 1 -22 6 -32 18 -34 23 -3 34 14 19 29 -14 14 -15 60
-1 52 6 -3 10 -15 10 -25 0 -10 5 -22 12 -26 8 -5 9 -2 5 10 -4 10 -3 15 3 11
6 -4 10 -12 9 -18 -5 -34 15 -76 37 -81 13 -4 24 -11 24 -16 0 -6 9 -10 19
-10 11 0 23 -4 26 -10 3 -5 14 -10 25 -10 10 0 21 -7 24 -16 10 -25 7 -28 -11
-12 -10 9 -43 23 -73 33 -30 10 -72 29 -92 43 l-37 24 -36 -37 c-36 -39 -45
-69 -22 -78 10 -4 10 -6 0 -6 -9 -1 -13 -17 -13 -47 0 -29 -8 -59 -20 -78 -18
-30 -18 -82 0 -71 5 3 6 -4 3 -15 -4 -14 1 -22 20 -29 41 -16 63 -59 65 -127
l2 -62 -50 -37 c-33 -24 -49 -43 -46 -52 4 -9 2 -11 -6 -7 -8 5 -9 2 -5 -9 4
-10 2 -16 -5 -14 -7 1 -27 -27 -45 -63 -18 -36 -45 -74 -62 -85 -27 -18 -72
-72 -113 -136 -12 -18 -15 -38 -11 -67 7 -51 -4 -103 -18 -81 -5 7 -9 33 -9
56 0 48 -9 57 -42 44 -16 -6 -28 -22 -36 -48 -13 -45 2 -107 43 -173 30 -49
44 -92 38 -123 -5 -27 19 -77 37 -77 6 0 10 39 10 93 0 50 4 97 8 103 6 10 65
34 81 34 4 0 12 -15 19 -32 7 -18 52 -75 100 -127 74 -80 91 -93 110 -87 16 6
22 15 22 38 0 16 7 42 16 57 15 25 15 30 0 59 -9 17 -16 36 -16 42 0 13 51
-12 69 -34 7 -9 18 -13 24 -9 5 3 8 2 4 -3 -3 -5 7 -24 21 -42 21 -24 42 -36
89 -48 62 -15 62 -15 106 11 28 16 47 35 51 51 6 21 9 24 21 14 12 -10 21 -10
44 0 16 6 43 9 59 5 25 -5 30 -3 36 17 3 13 6 36 6 52 0 24 3 28 23 22 49 -13
186 -36 250 -41 72 -7 83 -15 40 -31 l-28 -11 35 -11 35 -10 -36 -1 c-20 -1
-56 8 -80 19 -54 24 -69 25 -69 4 0 -12 6 -15 26 -10 15 4 23 3 20 -3 -3 -5 0
-12 6 -14 7 -3 -12 -6 -43 -6 -65 -1 -86 -18 -114 -94 -10 -26 -33 -61 -52
-77 -19 -18 -31 -35 -27 -42 4 -6 3 -8 -3 -5 -12 7 -29 -25 -38 -71 -4 -18
-20 -47 -36 -63 -16 -16 -29 -35 -29 -41 0 -5 13 -26 30 -44 16 -19 33 -46 36
-59 3 -14 10 -22 15 -19 5 3 6 -2 3 -11 -4 -9 2 -26 16 -39 20 -22 21 -26 6
-53 -12 -24 -13 -38 -4 -71 6 -23 14 -39 19 -36 5 3 6 -1 3 -9 -7 -19 21 -40
44 -32 11 3 23 16 27 28 6 20 8 20 12 3 6 -22 -25 -106 -39 -106 -6 0 -8 7 -4
15 3 8 1 15 -4 15 -18 0 -11 -57 10 -81 23 -28 27 -13 4 19 -17 25 -7 29 22 7
10 -8 21 -15 24 -15 13 0 60 49 58 61 -2 7 4 13 12 14 9 0 21 18 28 43 18 54
33 55 21 1 -7 -29 -6 -45 4 -59 13 -19 14 -19 47 1 18 12 42 32 53 45 22 29
37 31 37 6 0 -11 -10 -24 -22 -30 -22 -11 -22 -11 4 -7 20 2 29 -2 33 -15 6
-20 48 -35 54 -19 5 16 45 28 117 34 106 10 114 15 109 75 -3 46 -1 52 21 62
14 7 28 24 32 42 7 26 15 32 50 39 38 7 42 11 42 37 0 16 -7 35 -15 44 -8 8
-15 20 -15 26 0 7 -7 9 -16 6 -10 -4 -13 -2 -8 6 4 6 0 16 -8 22 -15 11 -33
88 -20 83 11 -3 14 7 6 27 -4 10 -2 34 5 52 7 19 10 38 7 43 -11 17 24 34 58
28 28 -4 38 -1 56 20 21 24 26 25 110 21 l88 -4 14 30 c9 17 19 45 25 61 5 17
15 29 23 28 8 -2 25 13 38 33 17 27 28 34 42 29 12 -4 20 -2 20 4 0 6 18 11
40 11 25 0 40 5 40 13 0 9 3 9 9 -1 5 -8 15 -12 24 -10 14 3 14 8 2 43 -13 35
-12 41 2 58 16 17 16 20 0 46 -19 33 -23 97 -6 103 8 3 7 14 -5 36 -14 27 -15
39 -5 77 6 25 9 61 6 80 -3 19 -1 37 4 41 6 4 6 11 -2 20 -6 8 -9 14 -6 14 3
0 1 14 -5 30 -7 21 -23 36 -52 50 -35 16 -47 30 -83 102 -23 46 -51 115 -63
153 -28 92 -61 135 -103 135 -21 0 -40 9 -56 25 -12 14 -28 22 -34 18 -5 -3
-7 -1 -4 4 9 14 -71 86 -85 77 -6 -4 -8 -3 -5 3 10 16 -64 69 -105 77 -35 6
-42 3 -98 -44 -65 -53 -98 -62 -136 -35 -12 8 -24 11 -28 7 -4 -3 -4 1 0 11 5
14 0 17 -22 17 -29 0 -89 17 -174 50 -25 10 -61 20 -80 24 -28 5 -38 13 -48
38 -6 17 -10 33 -8 35 5 5 85 -37 92 -48 3 -5 10 -9 15 -9 6 0 7 5 3 12 -4 7
-3 8 5 4 6 -4 9 -11 6 -16 -7 -11 40 -40 65 -40 11 0 20 5 20 10 0 6 14 10 30
10 17 0 30 3 30 8 0 4 17 6 38 4 33 -3 38 0 52 30 9 20 24 34 36 36 12 2 34
16 49 33 32 32 50 36 79 14 51 -39 196 10 196 65 0 12 -4 18 -10 15 -5 -3 -7
0 -4 9 4 10 -5 22 -24 33 -16 10 -29 20 -29 23 0 3 -6 29 -13 58 -10 44 -17
55 -44 66 -17 7 -35 10 -41 6 -5 -4 -26 -11 -45 -15 -60 -11 -71 -16 -64 -27
4 -7 2 -8 -4 -4 -6 4 -25 0 -41 -9 -17 -8 -38 -15 -48 -15 -15 1 -14 4 7 22
14 11 24 25 22 30 -1 5 2 7 7 4 5 -4 25 3 43 14 28 16 53 20 134 20 54 0 106
0 115 0 24 -2 119 61 112 74 -3 6 -2 8 2 3 15 -13 65 44 65 74 0 19 6 30 20
34 11 3 20 11 20 17 0 23 33 76 53 85 12 6 43 29 69 52 37 33 51 55 68 107 12
36 35 80 50 97 37 43 48 66 61 129 6 29 25 75 43 102 17 27 30 53 28 58 -1 5
2 7 7 4 5 -4 20 12 34 34 13 22 26 38 29 35 3 -3 21 11 41 30 26 26 37 46 42
79 8 50 -12 131 -32 131 -6 0 -15 4 -20 9 -5 6 -2 6 6 1 18 -11 11 9 -23 63
-29 46 -73 62 -111 42 -14 -8 -35 -10 -52 -5 -15 4 -60 8 -99 9 -52 1 -75 5
-88 19 -15 14 -52 22 -103 20 -7 -1 -13 3 -13 8 0 5 -9 9 -20 9 -11 0 -20 4
-20 9 0 16 -33 22 -49 8 -38 -34 -75 -29 -159 22 -75 45 -82 47 -131 41 -48
-6 -96 -34 -86 -50 8 -13 -43 -4 -60 10 -14 11 -21 11 -48 -5 -21 -13 -55 -20
-107 -21 -41 -2 -81 -3 -87 -3 -7 -1 -13 -9 -13 -20 0 -23 -68 -71 -101 -71
-13 1 -35 7 -49 15 l-25 15 35 -3 c24 -1 35 2 35 13 0 8 9 17 20 21 56 18 64
22 70 42 4 12 7 25 6 29 0 4 5 5 13 2 8 -3 21 5 30 17 21 30 7 39 -59 39 -41
0 -60 -6 -104 -36 -42 -29 -52 -32 -49 -17 4 23 107 85 130 77 9 -3 31 2 47
10 17 9 40 16 53 15 13 0 17 -3 11 -6 -21 -8 -15 -33 9 -33 22 0 58 35 105
103 28 40 24 59 -7 39 -26 -16 -40 -15 -40 2 0 12 -7 12 -34 5 -30 -8 -41 -6
-81 20 -26 17 -59 33 -74 36 -19 4 -33 17 -45 42 -24 50 -14 51 18 3 15 -22
30 -38 35 -36 4 3 26 -4 49 -16 l42 -20 35 26 c30 23 34 30 25 47 -6 11 -15
17 -20 14 -6 -3 -7 0 -4 8 3 9 26 18 52 22 49 7 157 64 205 109 15 14 36 26
46 26 23 0 133 99 125 112 -4 7 -2 8 4 4 6 -4 19 -3 29 2 20 11 52 24 101 42
17 7 45 29 62 49 16 20 37 44 46 54 11 13 14 28 9 45 -15 60 -17 92 -6 92 14
0 51 59 51 82 0 10 -14 21 -35 28 -19 6 -38 18 -43 26 -5 9 -30 16 -65 19 -46
3 -57 1 -57 -11 0 -8 4 -13 9 -10 8 6 7 -42 -2 -51 -9 -8 -79 21 -84 34 -8 19
-42 15 -99 -11 -51 -24 -51 -24 -105 -6 -29 10 -58 26 -65 35 -10 13 -14 14
-26 2 -8 -9 -26 -12 -46 -9 -20 2 -32 0 -32 -7 0 -6 -9 -11 -19 -11 -11 0 -22
-6 -25 -12 -3 -9 -8 -8 -16 5 -17 27 -53 21 -78 -13 -12 -16 -32 -34 -43 -41
-21 -11 -21 -10 1 19 29 39 24 82 -13 102 -28 15 -29 14 -70 -31 -43 -46 -98
-86 -81 -57 4 7 16 19 26 26 10 7 23 23 29 34 9 17 8 24 -5 34 -10 7 -19 20
-20 30 -2 10 -9 20 -16 22 -7 3 -10 0 -6 -7 4 -6 3 -11 -2 -11 -5 0 -12 -13
-15 -30 -4 -16 -11 -30 -17 -30 -13 0 -13 33 1 47 14 14 -17 63 -40 63 -9 0
-22 5 -28 11 -8 8 -14 7 -22 -3z"/>
<path d="M1650 8761 c-17 -13 -20 -20 -10 -21 11 0 11 -3 2 -12 -9 -9 -40 -12
-96 -10 -76 2 -84 0 -105 -22 l-23 -24 31 -23 c36 -27 69 -108 49 -121 -7 -4
-19 -8 -25 -8 -7 0 -13 -7 -13 -15 0 -8 4 -15 8 -15 19 0 7 -32 -14 -40 -18
-7 -24 -19 -28 -57 -3 -26 -11 -73 -17 -103 -6 -30 -13 -80 -16 -110 -5 -53
-4 -56 21 -68 15 -7 33 -12 41 -12 19 0 30 77 16 113 -10 26 -7 34 29 85 36
50 40 61 35 94 -6 34 -5 38 15 38 21 0 22 3 16 40 -6 40 -6 41 20 38 22 -3 32
5 57 45 l30 49 -22 29 c-23 31 -17 38 14 15 18 -13 45 -11 45 3 0 4 -14 22
-31 39 -30 31 -31 33 -14 52 26 29 14 46 -15 21z"/>
<path d="M2103 8606 c-18 -18 -23 -36 -25 -87 -2 -35 1 -77 5 -94 5 -16 5 -27
1 -23 -4 4 -14 2 -22 -5 -13 -11 -14 -9 -1 10 15 26 11 33 -22 36 -23 1 -56
34 -51 50 3 12 -27 67 -38 67 -4 0 -15 -14 -24 -30 -14 -30 -14 -31 10 -42 20
-9 22 -13 10 -20 -8 -4 -17 -22 -21 -38 -9 -40 -21 -38 -35 6 -11 31 -14 34
-22 20 -7 -13 -5 -21 9 -31 10 -8 13 -15 7 -15 -6 0 -14 3 -18 7 -15 15 -34
10 -45 -13 -11 -25 -6 -54 11 -54 5 0 6 -5 3 -10 -4 -6 9 -27 28 -47 40 -40
67 -39 67 2 0 14 5 25 10 25 6 0 10 -4 10 -10 0 -5 7 -7 15 -4 10 4 15 0 15
-13 0 -10 10 -24 22 -32 21 -13 21 -13 -10 -27 -20 -8 -32 -20 -32 -32 0 -22
22 -72 32 -72 4 0 5 -7 1 -16 -3 -9 4 -24 17 -36 17 -16 19 -22 8 -29 -9 -6
-7 -9 10 -9 12 0 22 3 22 8 0 11 74 9 82 -3 5 -5 5 -22 2 -37 -9 -44 22 -35
47 14 18 35 23 39 31 25 5 -10 6 -22 3 -27 -3 -6 3 -10 15 -10 26 0 17 -18
-16 -30 -13 -5 -24 -17 -24 -25 0 -10 5 -13 12 -9 7 4 8 3 4 -5 -4 -6 -11 -9
-15 -7 -12 8 -35 -40 -28 -58 4 -9 13 -16 22 -16 17 0 118 67 124 83 2 5 17
24 33 41 16 17 27 25 23 19 -3 -7 -3 -13 1 -13 8 0 64 62 64 72 0 15 -28 23
-85 24 -98 3 -98 3 -79 31 19 30 12 53 -17 53 -15 0 -19 -5 -15 -15 9 -24 -20
-18 -36 8 -8 12 -14 38 -13 57 1 19 -2 42 -7 51 -8 19 15 109 39 150 19 33 12
74 -25 149 -31 62 -54 72 -89 36z"/>
<path d="M4863 8043 c-13 -2 -23 -11 -23 -18 0 -7 10 -16 23 -18 l22 -4 -22
-2 c-25 -1 -31 -16 -10 -24 10 -4 10 -6 0 -6 -7 -1 -13 -8 -13 -17 0 -13 20
-15 158 -13 101 1 160 6 165 13 5 8 9 8 15 0 9 -14 42 -14 42 0 0 6 5 4 10 -4
9 -13 11 -13 20 0 6 10 10 11 10 3 0 -8 13 -13 29 -13 28 0 29 1 29 53 0 39
-2 46 -8 27 -8 -25 -8 -25 -9 5 -1 22 -4 26 -13 17 -7 -7 -21 -12 -32 -11 -18
1 -17 2 4 9 20 6 16 8 -24 9 -35 1 -53 -4 -63 -16 -8 -10 -12 -13 -9 -7 3 7 0
14 -7 16 -17 6 -267 7 -294 1z"/>
<path d="M1954 7454 c-5 -18 -10 -22 -17 -15 -6 6 -22 11 -35 11 -19 0 -23 -4
-19 -20 3 -11 -1 -27 -10 -35 -20 -20 -8 -35 28 -35 16 0 29 -3 29 -8 0 -4 13
-22 30 -40 23 -26 34 -31 55 -26 41 10 28 -9 -28 -42 -29 -16 -51 -35 -50 -42
2 -6 -3 -9 -11 -6 -8 3 -17 1 -20 -5 -8 -12 27 -33 46 -27 40 13 68 15 68 7 0
-28 -157 -38 -183 -12 -14 14 -47 15 -47 0 0 -5 6 -7 13 -4 6 4 1 -3 -12 -14
-13 -12 -21 -24 -17 -28 3 -3 6 -3 6 1 0 4 12 -5 26 -19 24 -24 28 -25 42 -12
11 11 21 13 39 6 15 -5 31 -5 42 1 12 6 22 5 28 -1 11 -11 62 0 106 22 13 7
17 5 17 -11 0 -24 23 -26 75 -5 26 12 34 19 27 28 -5 7 -9 19 -9 28 0 19 27
21 27 2 0 -18 27 -16 34 3 12 30 6 59 -14 72 -12 7 -26 10 -32 6 -6 -4 -8 -3
-5 3 7 11 -39 46 -60 46 -7 0 -10 4 -7 8 2 4 -4 10 -15 14 -13 4 -20 18 -24
52 -3 29 -12 52 -23 60 -10 7 -14 16 -11 20 13 12 -26 43 -54 43 -22 0 -30 -6
-35 -26z"/>
<path d="M2100 6865 c-7 -8 -33 -25 -58 -38 -69 -33 -76 -38 -96 -64 -16 -22
-16 -26 -3 -41 14 -15 13 -17 -9 -18 -32 -2 -73 -30 -84 -57 -6 -17 -9 -19
-14 -7 -3 8 -4 24 -3 35 1 12 -5 21 -16 23 -22 5 -69 -36 -60 -52 3 -6 2 -8
-2 -3 -5 4 -16 0 -25 -8 -16 -15 -18 -14 -23 7 -6 21 -11 23 -46 20 -33 -3
-41 -9 -52 -35 -7 -17 -14 -38 -14 -47 -1 -9 -11 -31 -23 -47 -24 -34 -29 -63
-9 -63 25 0 80 42 90 70 12 32 26 37 45 18 9 -9 6 -18 -15 -40 -15 -15 -21
-28 -15 -28 19 0 14 -46 -8 -85 -24 -43 -25 -51 -3 -59 9 -4 25 2 38 14 13 12
31 19 46 17 26 -4 69 11 69 25 0 4 3 7 8 7 34 -6 34 -5 17 131 -7 54 -7 54 10
32 33 -45 85 -46 85 -1 0 11 5 19 11 19 6 0 9 7 6 14 -4 10 -1 13 8 10 17 -7
40 13 49 43 4 11 16 31 26 44 11 13 29 35 40 49 11 14 36 44 55 66 19 23 35
47 35 53 0 16 -46 13 -60 -4z"/>
<path d="M2272 6355 c-43 -23 -54 -51 -53 -130 1 -123 34 -175 111 -175 34 0
37 4 46 60 6 34 4 41 -6 35 -9 -5 -11 -4 -6 4 4 6 12 9 17 6 5 -4 9 5 9 19 0
16 -6 26 -15 26 -12 0 -14 11 -10 58 4 45 1 61 -13 78 -24 28 -52 35 -80 19z"/>
<path d="M1410 5988 c-14 -5 -78 -11 -142 -12 l-117 -2 -31 -40 c-18 -21 -37
-42 -43 -46 -17 -10 -111 0 -122 14 -6 8 -26 12 -46 10 -49 -4 -74 -33 -78
-88 -1 -7 -10 -14 -20 -17 -13 -3 -21 -17 -26 -46 -6 -34 -17 -49 -67 -91 -56
-47 -63 -50 -114 -50 -38 0 -53 -4 -48 -11 5 -8 1 -8 -14 0 -11 6 -22 16 -24
22 -7 20 -65 0 -72 -24 -8 -33 18 -63 68 -77 34 -9 46 -18 46 -31 0 -14 -7
-19 -29 -19 -18 0 -41 -10 -55 -24 -25 -22 -28 -23 -70 -9 -44 15 -45 15 -91
-17 -28 -19 -54 -30 -66 -27 -24 6 -24 -1 2 -60 46 -105 73 -152 93 -161 17
-7 21 -18 21 -58 l0 -49 63 -29 c34 -16 62 -35 62 -41 0 -19 37 -48 51 -39 7
4 10 3 5 -4 -9 -15 26 -33 44 -22 9 6 24 1 44 -15 28 -22 32 -22 58 -9 15 8
34 27 42 43 10 18 26 30 46 34 25 5 30 11 30 35 0 15 -5 33 -11 39 -16 16 -1
53 21 53 10 0 37 16 60 35 35 29 44 33 64 24 13 -6 33 -32 45 -59 19 -41 20
-52 9 -69 -10 -17 -10 -25 0 -41 6 -11 12 -27 12 -36 0 -9 9 -32 21 -50 17
-28 24 -32 39 -24 30 16 47 -14 30 -53 -7 -18 -15 -54 -18 -81 -4 -45 -2 -48
14 -42 32 13 108 14 123 3 10 -9 18 -6 32 12 11 13 23 19 30 15 7 -4 28 -8 47
-10 27 -3 48 -16 86 -53 l51 -49 30 19 c17 10 36 22 43 25 17 8 52 78 52 103
0 11 9 29 21 40 21 19 21 19 66 -1 51 -22 54 -22 116 24 48 34 54 49 37 92 -8
22 -14 25 -41 19 -29 -5 -30 -4 -20 14 5 11 7 24 3 28 -4 5 -2 5 5 1 6 -3 15
-1 19 5 10 17 13 119 3 119 -5 0 -9 11 -9 25 0 30 13 32 40 5 38 -38 55 -119
31 -143 -13 -13 -15 -94 -2 -102 25 -15 64 89 63 165 -1 59 -12 173 -17 178
-12 12 -100 42 -123 42 -13 0 -36 -7 -52 -15 -27 -14 -29 -14 -35 6 -4 11 -5
21 -3 23 20 12 80 35 106 40 18 4 30 12 26 17 -3 5 0 9 5 9 7 0 11 23 11 55 0
47 -3 55 -19 55 -11 0 -24 11 -30 28 -21 50 -47 93 -52 87 -3 -3 -6 26 -6 64
-1 55 -5 76 -21 96 -18 22 -19 30 -9 46 10 15 8 30 -9 77 -20 53 -23 57 -51
54 -18 -2 -51 9 -87 28 -60 31 -103 36 -146 18z"/>
<path d="M1510 4490 c-8 -5 -10 -10 -5 -10 6 0 9 -17 7 -39 -4 -38 -3 -39 35
-44 72 -9 179 -7 158 3 -11 5 -31 9 -45 10 l-25 2 25 7 c14 4 27 4 28 -1 6
-14 32 -9 32 7 0 8 -6 15 -13 15 -8 0 -13 10 -13 23 1 18 -4 22 -29 20 -22 -2
-26 0 -15 7 13 8 13 10 -2 10 -9 0 -19 -6 -22 -12 -5 -10 -7 -10 -12 0 -7 14
-82 16 -104 2z"/>
<path d="M5517 3863 c-4 -3 -7 -28 -7 -55 l0 -48 616 0 615 0 -3 53 -3 52
-606 3 c-333 1 -609 -1 -612 -5z"/>
<path d="M3961 3638 c-12 -10 -21 -25 -21 -32 0 -7 -10 -25 -21 -40 -12 -15
-19 -30 -15 -33 3 -4 -1 -17 -9 -30 -9 -13 -13 -28 -9 -34 3 -6 3 -46 -1 -90
-6 -69 -11 -82 -31 -95 -16 -11 -28 -13 -40 -6 -15 8 -29 0 -73 -39 -30 -27
-64 -49 -75 -49 -12 0 -26 -4 -32 -8 -20 -13 -44 -70 -38 -89 4 -11 3 -14 -3
-7 -4 7 -35 11 -72 10 -56 -2 -65 1 -79 22 -11 17 -23 22 -45 20 -25 -2 -32
-9 -39 -35 -5 -18 -17 -37 -28 -43 -15 -8 -22 -5 -39 18 -11 16 -38 36 -60 46
-36 17 -41 17 -62 2 -13 -9 -31 -16 -40 -16 -25 0 -52 -37 -65 -88 -13 -49 -5
-72 22 -72 16 0 57 -57 45 -64 -4 -3 -11 -18 -14 -33 -6 -29 -49 -82 -81 -100
-15 -8 -17 -17 -11 -43 7 -31 8 -32 46 -26 62 10 45 -7 -37 -38 -41 -15 -78
-34 -80 -41 -9 -23 78 -138 111 -147 39 -10 85 0 85 18 0 11 9 14 33 12 28 -3
34 -8 46 -46 12 -40 16 -44 41 -38 30 5 60 -17 60 -45 0 -28 22 -38 65 -32
l43 5 4 -40 c2 -24 -2 -48 -9 -58 -19 -26 -16 -42 10 -46 19 -3 22 -8 20 -43
-1 -22 -5 -56 -8 -76 -8 -40 16 -99 39 -99 33 0 75 23 78 42 2 12 9 23 17 26
9 3 11 -2 6 -17 -6 -19 -2 -21 29 -21 20 0 56 6 82 12 41 11 47 11 59 -5 19
-27 35 -21 29 11 -5 23 -1 29 25 39 34 12 38 10 64 -43 14 -27 23 -32 67 -38
27 -4 53 -7 57 -8 5 0 16 16 26 36 15 32 22 36 55 36 32 1 40 6 62 40 13 22
30 40 36 40 15 0 71 81 80 114 4 17 0 27 -13 35 -17 10 -17 10 3 11 27 0 48
25 40 45 -4 11 3 17 24 22 17 3 33 10 36 14 3 5 16 9 30 9 14 0 27 7 30 15 7
18 35 20 51 4 15 -15 32 -3 44 28 10 26 9 26 76 7 30 -8 40 18 25 61 -10 26
-9 38 4 64 11 22 14 45 10 71 -6 37 -4 39 21 42 27 3 28 5 26 59 -1 31 -9 73
-17 94 -9 21 -16 50 -16 66 0 16 -7 32 -16 37 -12 6 -15 17 -11 32 4 16 1 24
-14 27 -10 3 -19 12 -19 19 0 20 -27 17 -49 -5 -11 -11 -27 -21 -38 -23 -10
-2 -17 -10 -16 -16 5 -23 -43 -13 -57 13 -7 13 -18 22 -23 18 -6 -4 -7 -1 -2
7 4 7 2 16 -6 21 -20 13 -29 11 -29 -6 0 -8 -4 -15 -10 -15 -13 0 -13 -36 0
-61 9 -16 7 -21 -12 -28 -30 -11 -38 3 -44 77 -2 31 -8 74 -13 96 -8 34 -7 39
10 43 12 4 19 14 19 30 0 13 7 31 15 39 8 9 15 11 15 6 0 -6 9 -8 20 -5 11 3
20 12 20 20 0 8 -5 11 -12 7 -8 -4 -10 -3 -5 2 5 5 14 9 20 9 7 0 13 10 15 22
2 12 10 27 18 33 30 26 15 56 -25 50 -8 -1 -17 4 -21 10 -5 9 -13 9 -27 1 -16
-8 -24 -6 -39 14 -18 22 -23 23 -56 13 -59 -18 -118 21 -118 79 0 8 -18 42
-40 75 -22 33 -40 70 -40 83 0 43 -57 64 -89 33z"/>
<path d="M1516 2902 c-3 -3 -6 -27 -6 -54 l0 -48 205 0 c113 0 205 4 205 9 0
5 -7 14 -15 21 -12 10 -15 10 -15 0 0 -8 -2 -11 -5 -9 -2 3 -2 15 2 27 5 19
12 22 52 21 54 -1 101 -16 101 -33 0 -8 -19 -11 -53 -11 -33 1 -54 -3 -54 -10
0 -7 36 -11 101 -13 78 -1 97 1 88 10 -7 7 -11 26 -11 43 l2 30 7 -35 c7 -34
7 -34 9 12 l1 48 -304 -1 c-168 -1 -307 -4 -310 -7z"/>
<path d="M4900 1493 c0 -7 -9 -13 -20 -13 -11 0 -20 -4 -20 -9 0 -4 -21 -14
-47 -20 -27 -7 -60 -16 -76 -21 -16 -5 -41 -5 -59 1 -40 11 -62 -4 -47 -32 11
-21 3 -86 -12 -95 -5 -3 -9 0 -9 6 0 6 -5 8 -11 4 -7 -4 -7 -9 -1 -13 5 -3 12
-16 16 -28 4 -14 12 -20 22 -16 7 3 14 0 14 -7 0 -12 45 -60 56 -60 13 0 30
-26 27 -41 -4 -13 1 -16 22 -11 21 3 27 0 32 -17 3 -11 12 -21 19 -21 8 0 14
-9 14 -20 0 -30 26 -35 56 -11 36 28 50 26 71 -9 10 -17 24 -29 32 -28 22 4
81 109 81 143 0 8 6 15 14 15 8 0 17 13 21 29 5 22 16 33 46 45 27 11 39 22
39 36 0 11 -3 20 -8 20 -4 0 -16 16 -26 35 -20 37 -37 42 -92 26 -21 -6 -36
-5 -49 5 -10 8 -15 14 -10 14 5 0 4 5 -2 11 -6 6 -9 18 -6 25 3 8 -1 21 -8 30
-10 12 -10 17 -1 23 6 4 -4 7 -23 7 -19 0 -35 -5 -35 -10 0 -6 -5 -4 -10 4 -6
10 -10 11 -10 3z"/>
</g>
</svg>
